<svg xmlns="http://www.w3.org/2000/svg" height="24px" viewBox="0 -960 960 960" width="24px" fill="#BB271A">
  <path d="M446.01-61.4Q429.52-68.3 416-82L82-416q-13.7-13.52-20.6-30.01-6.9-16.49-6.9-34.04t6.91-34.09Q68.33-530.68 82-544l333.91-334.39q13.61-13.91 30.1-20.51 16.49-6.6 34.01-6.6 17.51 0 34.03 6.6 16.51 6.6 29.95 20.4L878.5-544q13.8 13.44 20.4 29.95 6.6 16.52 6.6 34.03 0 17.52-6.6 34.01t-20.51 30.1L544-82q-13.32 13.67-29.86 20.59-16.54 6.91-34.09 6.91-17.55 0-34.04-6.9ZM480-148l333.5-332L480-813.5 148-480l332 332Zm-39.5-286H520v-239h-79.5v239Zm67.75 119Q520-326.5 520-342.51t-11.75-28.25Q496.5-383 480-383t-28 12.24q-11.5 12.24-11.5 28.25 0 16.01 11.5 27.51t28 11.5q16.5 0 28.25-11.5ZM480-480Z"/>
</svg>