<svg xmlns="http://www.w3.org/2000/svg" height="24px" viewBox="0 -960 960 960" width="24px" fill="#BB271A"><path d="M212-86q-53 0-89.5-36.5T86-212v-148h126v148h148v126H212Zm536 0H600v-126h148v-148h126v148q0 53-36.5 89.5T748-86ZM86-748q0-53 36.5-89.5T212-874h148v126H212v148H86v-148Zm788 0v148H748v-148H600v-126h148q53 0 89.5 36.5T874-748ZM518-257q18-18 18-43.14t-18-42.5Q500-360 474.86-360t-42.5 17.36Q415-325.28 415-300.14T432.36-257q17.36 18 42.5 18T518-257Zm-89-136h94q0-33 8.5-52t34.5-44q30-30 42.5-55t12.5-54q0-54.44-37.5-88.72T487-721q-56 0-97 30.5T329-603l87 33q10-28 27.5-44t38.5-16q18 0 30 11t12 28q0 12-9.5 28T490-533q-39 36-50 61t-11 79Z"/></svg>